<svg width="50" height="50" viewBox="0 0 50 50" fill="none" xmlns="http://www.w3.org/2000/svg">
<rect width="50" height="50" fill="white"/>
<path d="M15.8545 17.0918V20.9736H16.7334C17.8857 20.9736 18.667 20.9395 19.0771 20.8711C19.5166 20.8027 19.8877 20.6074 20.1904 20.2852C20.4932 19.9824 20.6445 19.5674 20.6445 19.04C20.6445 18.5127 20.4932 18.0928 20.1904 17.7803C19.8877 17.458 19.502 17.2627 19.0332 17.1943C18.584 17.126 17.7637 17.0918 16.5723 17.0918H15.8545ZM17.3926 33H6.31836V28.1221H7.97363V17.502H6.31836V12.624H17.3926C18.3887 12.624 19.3115 12.6436 20.1611 12.6826C21.0107 12.7119 21.7383 12.7607 22.3438 12.8291C22.9492 12.8877 23.5059 12.9707 24.0137 13.0781C25.4395 13.3809 26.5967 14.04 27.4854 15.0557C28.3838 16.0908 28.833 17.3115 28.833 18.7178C28.833 19.7725 28.5596 20.7295 28.0127 21.5889C27.4658 22.4385 26.748 23.0635 25.8594 23.4639L28.6719 28.1221H30.1367V33H22.7979L18.3594 24.6797H15.8545V28.1221H17.3926V33ZM31.2354 39.0205V34.0254C31.5479 34.1035 31.8359 34.1426 32.0996 34.1426C32.7246 34.1426 33.125 33.9277 33.3008 33.498C33.4668 33.0586 33.5498 32.0088 33.5498 30.3486V17.502H31.6748V12.624H43.1738V17.502H41.4307V29.4404C41.4307 31.6572 41.3721 33.2197 41.2549 34.1279C41.1377 35.0459 40.8008 35.9199 40.2441 36.75C39.668 37.5898 38.9258 38.2197 38.0176 38.6396C37.1094 39.0596 35.8496 39.2695 34.2383 39.2695C33.3105 39.2695 32.3096 39.1865 31.2354 39.0205Z" fill="black"/>
</svg>
